<svg width="55" height="52" fill="none" xmlns="http://www.w3.org/2000/svg"><g clip-path="url(#clip0_233_3587)"><rect width="54.667" height="52" rx="26" fill="#E6B964"/><path d="M14 35.333C14 36.8 15.2 38 16.667 38H38c1.467 0 2.667-1.2 2.667-2.667V22c0-1.467-1.2-2.667-2.667-2.667h-2.9A3.98 3.98 0 0035.334 18a4 4 0 10-7.899.882l-.1-.1-.101.1a4 4 0 10-7.9-.882c0 .468.085.916.233 1.333h-2.9A2.675 2.675 0 0014 22v13.333zm17.333-18.666c.736 0 1.334.598 1.334 1.333s-.598 1.333-1.334 1.333A1.335 1.335 0 0130 18c0-.735.598-1.333 1.333-1.333zm-8 0c.736 0 1.334.598 1.334 1.333s-.598 1.333-1.334 1.333A1.335 1.335 0 0122 18c0-.735.598-1.333 1.333-1.333zM16.667 22h7.448l-4 4L22 27.885l5.333-5.333 5.334 5.333L34.552 26l-4-4H38v13.333H16.667V22z" fill="#006B6B"/></g><defs><clipPath id="clip0_233_3587"><rect width="54.667" height="52" rx="26" fill="#fff"/></clipPath></defs></svg>