<svg width="18" height="18" fill="none" xmlns="http://www.w3.org/2000/svg"><g clip-path="url(#clip0_318_108)" fill="#fff"><path d="M7.209 5.91l.45 1.676c.423 1.581.634 2.372 1.257 2.731.623.36 1.413.148 2.994-.276l1.676-.449c1.581-.424 2.371-.635 2.731-1.258.36-.623.148-1.413-.276-2.994l-.449-1.676c-.424-1.581-.635-2.372-1.258-2.731-.623-.36-1.413-.148-2.994.276l-1.676.45c-1.581.423-2.372.634-2.731 1.257-.36.623-.148 1.413.276 2.994z"/><path d="M.775 2.756a.667.667 0 01.823-.48l1.52.434a2.453 2.453 0 011.69 1.728l1.918 7.164.142.503c.564.217 1.05.624 1.357 1.166l.277-.088 7.91-2.121a.667.667 0 01.816.494.692.692 0 01-.479.841l-7.882 2.114-.293.093a2.659 2.659 0 01-5.228.673 2.66 2.66 0 012.091-3.306L3.52 4.805a1.094 1.094 0 00-.76-.765l-1.52-.435a.693.693 0 01-.465-.85z"/></g><defs><clipPath id="clip0_318_108"><path fill="#fff" d="M0 0h18v18H0z"/></clipPath></defs></svg>