<svg width="18" height="18" fill="none" xmlns="http://www.w3.org/2000/svg"><path fill-rule="evenodd" clip-rule="evenodd" d="M16.2 15.008c0 .472-.444.85-.94.85h-2.7a.84.84 0 01-.86-.85v-2.572c0-.472.364-.864.86-.864h2.7c.496 0 .94.392.94.864v2.572zm-.94-5.15h-2.7c-1.492 0-2.66 1.158-2.66 2.578v2.572c0 1.42 1.168 2.564 2.66 2.564h2.7c1.49 0 2.74-1.144 2.74-2.564v-2.572c0-1.42-1.25-2.579-2.74-2.579zm-8.96 5.15c0 .472-.444.85-.94.85h-2.7a.84.84 0 01-.86-.85v-2.572c0-.472.364-.864.86-.864h2.7c.496 0 .94.392.94.864v2.572zm-.94-5.15h-2.7C1.167 9.857 0 11.015 0 12.435v2.572c0 1.42 1.168 2.564 2.66 2.564h2.7c1.49 0 2.74-1.144 2.74-2.564v-2.572c0-1.42-1.25-2.579-2.74-2.579zm10.84-4.28c0 .473-.444.85-.94.85h-2.7a.84.84 0 01-.86-.85v-2.57c0-.472.364-.865.86-.865h2.7c.496 0 .94.393.94.865v2.571zM15.26.43h-2.7C11.068.43 9.9 1.589 9.9 3.009V5.58c0 1.42 1.168 2.564 2.66 2.564h2.7C16.75 8.143 18 7 18 5.579V3.008c0-1.42-1.25-2.58-2.74-2.58zM6.3 5.579c0 .473-.444.85-.94.85h-2.7a.84.84 0 01-.86-.85V3.008c0-.472.364-.865.86-.865h2.7c.496 0 .94.393.94.865v2.571zM5.36.43h-2.7C1.167.429 0 1.588 0 3.008v2.571C0 7 1.168 8.143 2.66 8.143h2.7C6.85 8.143 8.1 7 8.1 5.579V3.008c0-1.42-1.25-2.58-2.74-2.58z" fill="#191919"/></svg>