<svg width="14" height="14" fill="none" xmlns="http://www.w3.org/2000/svg"><g clip-path="url(#clip0_498_4848)" fill="#272727"><path d="M4.669 5.494a.583.583 0 01.825-.825l1.51 1.51L8.51 4.67a.583.583 0 01.825.825L7.828 7.003l1.508 1.508a.583.583 0 01-.825.825L7.003 7.828 5.496 9.336a.583.583 0 01-.825-.825l1.507-1.508-1.51-1.51z"/><path fill-rule="evenodd" clip-rule="evenodd" d="M13.417 7A6.417 6.417 0 11.583 7a6.417 6.417 0 0112.834 0zM1.754 7a5.246 5.246 0 1010.492 0A5.246 5.246 0 001.754 7z"/></g><defs><clipPath id="clip0_498_4848"><path fill="#fff" d="M0 0h14v14H0z"/></clipPath></defs></svg>