<svg width="66" height="62" fill="none" xmlns="http://www.w3.org/2000/svg"><path d="M55.467 44.975C59.866 55.208 60.172 57.446 66 58.129v1.675H38.876v-1.751c3.642-.29 5.862-1.58 4.458-5.245-3.811-9.96-10.005-24.02-15.289-36.082-.723-1.658-.748-3.34-.068-5.015l.187-.461-.144-.325-1.668 1.922C20.396 19.724 11.66 28.992 7.192 36.45c-5.581 9.312-.51 20.946 11.63 20.946 4.603 0 8.194-1.478 10.789-4.45-9.674 0-9.36-14.232-.264-14.232 4.424 0 7.59 4.263 7.59 8.474 0 13.377-21.841 20.356-32.161 9.413-6.16-6.526-5.948-15.999-1.72-23.294C6.206 27.856 22.447 9.696 31.084 0h4.866l19.518 44.975z" fill="#E6B964"/></svg>