<svg width="28" height="26" fill="none" xmlns="http://www.w3.org/2000/svg"><path d="M6.8 9.6h4.8" stroke="#fff" stroke-width="2.4" stroke-linecap="round" stroke-linejoin="round"/><path d="M24.601 10.799H21.48c-2.142 0-3.877 1.611-3.877 3.6 0 1.988 1.736 3.6 3.876 3.6H24.6c.101 0 .15 0 .192-.003.648-.04 1.164-.518 1.206-1.12.003-.038.003-.084.003-.177v-4.6c0-.093 0-.14-.003-.178-.043-.601-.558-1.08-1.206-1.12-.042-.002-.091-.002-.192-.002z" stroke="#fff" stroke-width="2.4"/><path d="M24.758 10.799c-.094-2.247-.394-3.624-1.364-4.594C21.988 4.8 19.725 4.8 15.2 4.8h-3.6c-4.525 0-6.788 0-8.194 1.406C2.001 7.612 2 9.874 2 14.4s0 6.788 1.406 8.193C4.813 23.998 7.075 24 11.6 24h3.6c4.525 0 6.788 0 8.194-1.407.97-.97 1.272-2.347 1.364-4.593" stroke="#fff" stroke-width="2.4"/><path d="M6.8 4.8l4.483-2.973a3.888 3.888 0 014.236 0L20 4.799" stroke="#fff" stroke-width="2.4" stroke-linecap="round"/><path d="M21.188 14.4h.012" stroke="#fff" stroke-width="2.4" stroke-linecap="round" stroke-linejoin="round"/></svg>