<svg width="28" height="28" fill="none" xmlns="http://www.w3.org/2000/svg"><path d="M18.8 20l.252.252c.443.443.663.664.931.648.268-.014.463-.258.854-.748L22.4 18.2m-3.395-9.108V11m0-1.908c0-.905.76-1.638 1.698-1.638.936 0 1.697.733 1.697 1.637V11m-3.395-1.908V5.817c0-.903-.76-1.637-1.697-1.637s-1.698.732-1.698 1.637m0 0V11m0-5.183v-2.18c0-.905-.758-1.637-1.696-1.637-.939 0-1.697.732-1.697 1.637v3.271m0 0c0-.904-.761-1.637-1.698-1.637-.936 0-1.697.732-1.697 1.637v7.856c0 .5-.64.736-.988.366l-2.748-2.926a1.698 1.698 0 00-1.938-.459c-1.21.5-1.494 2.266-.708 3.283 1.347 1.743 2.724 4.12 3.838 6.216C7.79 24.092 10.772 26 14.086 26m-1.87-19.092V11m2.984 7.145v.463c0 1.442 0 2.164.178 2.824a5.23 5.23 0 001.216 2.192c.468.506 1.087.9 2.325 1.688.553.353.83.53 1.125.612.364.101.75.101 1.113 0 .294-.082.57-.259 1.124-.612 1.237-.788 1.857-1.182 2.325-1.688a5.232 5.232 0 001.216-2.192c.178-.66.178-1.38.178-2.824v-.463c0-.898 0-1.347-.17-1.726a2.038 2.038 0 00-.443-.624c-.304-.288-.735-.446-1.596-.762l-1.77-.648C21.32 14.128 20.968 14 20.6 14s-.719.128-1.422.386l-1.769.648c-.861.315-1.292.472-1.596.761-.186.178-.337.39-.444.624-.17.38-.17.828-.17 1.726z" stroke="#fff" stroke-width="2.4" stroke-linecap="round" stroke-linejoin="round"/></svg>