<svg width="28" height="28" fill="none" xmlns="http://www.w3.org/2000/svg"><g clip-path="url(#clip0_143_1883)" stroke="#fff" stroke-width="2.4" stroke-linecap="round" stroke-linejoin="round"><path d="M11.245 13.234l-8.421 8.421a2.381 2.381 0 001.684 4.068 2.38 2.38 0 001.684-.697l8.421-8.424m5.14.435l4.62 4.62a2.382 2.382 0 01-3.37 3.368l-7.395-7.395M7.294 7.632l-2.529.84-2.525-4.21 1.684-1.684 4.212 2.526-.842 2.528zm0 0l3.37 3.37"/><path d="M11.245 13.233c-1.006-2.564-.81-5.929 1.263-8.001 2.073-2.073 5.896-2.527 8.001-1.263L16.89 7.59l-.338 3.706 3.706-.336 3.62-3.623c1.266 2.106.81 5.93-1.262 8.001-2.072 2.073-5.436 2.27-8 1.264"/></g><defs><clipPath id="clip0_143_1883"><path fill="#fff" transform="translate(.266 .6)" d="M0 0h26.8v26.8H0z"/></clipPath></defs></svg>