<svg width="25" height="20" fill="none" xmlns="http://www.w3.org/2000/svg"><path fill-rule="evenodd" clip-rule="evenodd" d="M7.267.1c-.9 0-1.644 0-2.249.05-.628.052-1.205.164-1.746.445a4.4 4.4 0 00-1.876 1.876c-.281.541-.393 1.118-.446 1.747C.9 4.823.9 5.566.9 6.466V13.3a4.401 4.401 0 003.454 4.297 3.301 3.301 0 006.258.103h5.876a3.301 3.301 0 006.312-.291 3.302 3.302 0 001.904-3.504l-.153-1.013a17.6 17.6 0 00-2.86-7.278l-.2-.293A4.4 4.4 0 0017.856 3.4H16.3c-.056 0-.11.002-.165.006a3.714 3.714 0 00-.33-.935A4.4 4.4 0 0013.928.595c-.54-.28-1.118-.393-1.746-.445C11.577.1 10.834.1 9.933.1H7.267zM16.3 6.387V15.5h.188a3.301 3.301 0 015.937-.607c.098-.195.14-.423.104-.658l-.153-1.013a15.4 15.4 0 00-2.503-6.369l-.2-.293a2.2 2.2 0 00-1.817-.96H16.3v.787zm-2.2.126c0-.959 0-1.61-.043-2.113-.04-.49-.114-.74-.205-.915a2.199 2.199 0 00-.938-.938c-.174-.09-.424-.164-.914-.205-.503-.042-1.155-.042-2.113-.042H7.313c-.958 0-1.61 0-2.112.042-.49.041-.74.115-.915.205a2.2 2.2 0 00-.938.938c-.09.175-.164.425-.205.915C3.1 4.903 3.1 5.554 3.1 6.513V13.3a2.2 2.2 0 001.353 2.03 3.301 3.301 0 016.16.17H14.1V6.513zM8.6 16.6a1.1 1.1 0 10-2.2 0 1.1 1.1 0 002.2 0zm9.9 0a1.1 1.1 0 112.2 0 1.1 1.1 0 01-2.2 0z" fill="#fff"/></svg>