<svg width="25" height="25" fill="none" xmlns="http://www.w3.org/2000/svg"><path d="M1.89 23.322l7.637-7.637m9.617-3.396l-2.286 6.858a.721.721 0 01-.478.463L2.366 23.776a.72.72 0 01-.888-.918l4.55-13.65a.72.72 0 01.409-.437L12.9 6.109a.72.72 0 01.784.156l5.285 5.287a.72.72 0 01.174.737z" stroke="#fff" stroke-width="2.4" stroke-linecap="round" stroke-linejoin="round"/><path d="M19.286 11.867l3.394-3.395a2.4 2.4 0 000-3.393l-2.544-2.547a2.4 2.4 0 00-3.395 0l-3.394 3.395m-1.274 7.212a1.8 1.8 0 10-2.545 2.546 1.8 1.8 0 002.545-2.546z" stroke="#fff" stroke-width="2.4" stroke-linecap="round" stroke-linejoin="round"/></svg>