<svg width="25" height="24" fill="none" xmlns="http://www.w3.org/2000/svg"><path d="M6.667 14.402h12m-12 0v-2.88c0-.672 0-1.008.13-1.265.116-.226.3-.41.525-.525.257-.13.593-.13 1.265-.13h8.16c.672 0 1.008 0 1.265.13a1.2 1.2 0 01.524.525c.13.257.13.593.13 1.265v2.88m-12 0v8.4m12-8.4v8.4M20.284 5.01l-5.04-2.52c-.945-.473-1.417-.709-1.912-.802a3.6 3.6 0 00-1.328 0c-.495.093-.968.33-1.912.802L5.05 5.01c-1.156.577-1.734.866-2.156 1.297a3.6 3.6 0 00-.832 1.346c-.196.57-.196 1.216-.196 2.508v10.72c0 .673 0 1.009.13 1.265a1.2 1.2 0 00.525.525c.257.13.593.13 1.265.13h17.76c.672 0 1.008 0 1.264-.13a1.2 1.2 0 00.525-.525c.13-.256.13-.592.13-1.264v-10.72c0-1.293 0-1.939-.196-2.51a3.6 3.6 0 00-.831-1.345c-.423-.43-1-.72-2.156-1.297z" stroke="#fff" stroke-width="2.4" stroke-linecap="round" stroke-linejoin="round"/></svg>