<svg width="168" height="32" fill="none" xmlns="http://www.w3.org/2000/svg"><path d="M28.69 23.213c2.274 5.281 2.433 6.437 5.447 6.79v.863h-14.03v-.903c1.884-.15 3.033-.816 2.307-2.707-1.972-5.141-5.175-12.398-7.908-18.623a3.21 3.21 0 01-.035-2.588l.097-.239-.075-.167-.863.992c-3.08 3.55-7.6 8.333-9.91 12.182-2.887 4.805-.264 10.81 6.016 10.81 2.38 0 4.237-.763 5.58-2.297-5.004 0-4.841-7.345-.137-7.345 2.289 0 3.926 2.2 3.926 4.374 0 6.904-11.297 10.506-16.635 4.858-3.186-3.368-3.076-8.258-.889-12.023C3.21 14.377 11.611 5.004 16.077 0h2.517L28.69 23.213z" fill="#E6B964"/><path d="M54.697 21.07h-9.61l-1.898 4.457h-3.678l8.647-19.262h3.516l8.682 19.262H56.62l-1.923-4.457zm-1.18-2.809l-3.625-8.42-3.6 8.42h7.226zm23.813 7.266v-9.744l-4.947 8.2H70.9l-4.858-8.226v9.77H62.91V10.832h3.6l5.219 9.193 5.461-9.193h3.217l.026 14.695H77.33zm32.243-14.858c4.463 0 7.442 3.14 7.442 7.508 0 4.422-3.006 7.54-7.442 7.54-1.98 0-3.542-.657-4.695-1.98v7.13h-3.437V10.831h3.27v1.927c1.21-1.486 2.988-2.09 4.862-2.09zm-.387 12.107c2.685 0 4.344-1.984 4.344-4.599 0-2.61-1.659-4.594-4.344-4.594-2.64 0-4.365 1.967-4.365 4.594 0 2.628 1.725 4.599 4.365 4.599zm27.438-11.944h3.433v5.97h7.389v-5.97h3.436v14.695h-3.436v-5.806h-7.389v5.806h-3.433V10.832zm30.488 2.919h-5.135v11.776h-3.433V13.751h-5.166v-2.919h13.734v2.919zm-71.233-1.53c1.144 1.036 1.716 2.601 1.716 4.691v8.615h-3.243v-1.79c-2.161 3.293-10.078 2.592-10.078-2.42 0-3.497 3.182-4.374 6.095-4.374h3.789c.048-4.343-5.703-3.96-8.102-1.958l-1.342-2.5c2.755-2.107 8.524-2.654 11.165-.264zm-5.427 10.996c1.598 0 3.12-.719 3.706-2.284v-1.706h-3.543c-4.194 0-3.802 3.99-.163 3.99zm40.795-10.996c1.144 1.036 1.716 2.601 1.716 4.691v8.615h-3.243v-1.79c-2.157 3.293-10.078 2.592-10.078-2.42 0-3.497 3.182-4.374 6.095-4.374h3.793c.044-4.343-5.703-3.96-8.106-1.958l-1.342-2.5c2.755-2.107 8.524-2.654 11.165-.264zm-5.426 10.996c1.597 0 3.12-.719 3.709-2.284v-1.706h-3.547c-4.193 0-3.802 3.99-.162 3.99z" fill="#fff"/></svg>