<svg width="26" height="27" fill="none" xmlns="http://www.w3.org/2000/svg"><path d="M10.977 12.634l-8.42 8.421a2.382 2.382 0 103.368 3.371l8.42-8.423m5.14.434l4.62 4.62a2.382 2.382 0 01-3.369 3.368l-7.396-7.394M7.026 7.032l-2.528.841-2.526-4.21 1.685-1.684 4.211 2.526-.842 2.527zm0 0l3.371 3.371" stroke="#F1F7F7" stroke-width="2.4" stroke-linecap="round" stroke-linejoin="round"/><path d="M10.977 12.634c-1.005-2.565-.809-5.93 1.264-8.002 2.072-2.073 5.896-2.526 8-1.263l-3.62 3.621-.337 3.706 3.705-.336 3.621-3.622c1.265 2.106.81 5.93-1.263 8-2.072 2.073-5.436 2.27-8 1.264" stroke="#F1F7F7" stroke-width="2.4" stroke-linecap="round" stroke-linejoin="round"/></svg>