<svg width="25" height="25" fill="none" xmlns="http://www.w3.org/2000/svg"><path d="M6.4 14.802h12m-12 0v-2.88c0-.673 0-1.009.13-1.265a1.2 1.2 0 01.525-.525c.257-.13.593-.13 1.265-.13h8.16c.672 0 1.008 0 1.264.13a1.2 1.2 0 01.525.525c.13.256.13.592.13 1.264v2.88m-12 0v8.4m12-8.4v8.4M20.016 5.41l-5.04-2.52c-.944-.472-1.416-.708-1.912-.8a3.6 3.6 0 00-1.327 0c-.496.092-.968.328-1.912.8l-5.04 2.52c-1.156.578-1.734.867-2.156 1.298a3.6 3.6 0 00-.832 1.346C1.6 8.623 1.6 9.269 1.6 10.56v10.72c0 .672 0 1.009.13 1.265a1.2 1.2 0 00.525.525c.257.13.593.13 1.265.13h17.76c.672 0 1.008 0 1.264-.13a1.2 1.2 0 00.525-.525c.13-.256.13-.593.13-1.264v-10.72c0-1.293 0-1.939-.196-2.51a3.6 3.6 0 00-.831-1.345c-.423-.43-1-.72-2.157-1.298z" stroke="#fff" stroke-width="2.4" stroke-linecap="round" stroke-linejoin="round"/></svg>