<svg width="27" height="23" fill="none" xmlns="http://www.w3.org/2000/svg"><path fill-rule="evenodd" clip-rule="evenodd" d="M7.145.6c-.982 0-1.793 0-2.453.054-.686.057-1.315.18-1.905.486A4.8 4.8 0 00.74 3.187c-.307.59-.43 1.22-.486 1.905-.055.66-.055 1.471-.055 2.453V15a4.802 4.802 0 003.768 4.688 3.602 3.602 0 006.827.112h6.41a3.601 3.601 0 006.886-.318 3.602 3.602 0 002.078-3.822L26 14.555a19.2 19.2 0 00-3.12-7.94l-.217-.32A4.8 4.8 0 0018.697 4.2h-1.698c-.06 0-.12.002-.18.006a4.057 4.057 0 00-.36-1.02 4.8 4.8 0 00-2.047-2.046c-.59-.306-1.22-.429-1.905-.486C11.847.6 11.036.6 10.054.6h-2.91zm9.854 6.859V17.4h.205a3.601 3.601 0 016.477-.662c.107-.213.153-.461.114-.718l-.168-1.106a16.8 16.8 0 00-2.73-6.947l-.217-.32A2.4 2.4 0 0018.697 6.6h-1.698v.859zm-2.4.137c0-1.046 0-1.756-.046-2.305-.045-.535-.125-.807-.224-.998a2.4 2.4 0 00-1.024-1.023c-.19-.099-.463-.18-.997-.224-.55-.045-1.26-.046-2.305-.046H7.195C6.15 3 5.44 3 4.891 3.046c-.535.045-.808.125-.998.224a2.4 2.4 0 00-1.024 1.023c-.098.19-.179.463-.223.998-.046.549-.047 1.26-.047 2.305V15a2.4 2.4 0 001.476 2.215 3.601 3.601 0 016.72.185h3.804V7.596zM8.6 18.6a1.2 1.2 0 10-2.4 0 1.2 1.2 0 002.4 0zm10.8 0a1.2 1.2 0 112.4 0 1.2 1.2 0 01-2.4 0z" fill="#fff"/></svg>