<svg width="23" height="27" fill="none" xmlns="http://www.w3.org/2000/svg"><path d="M1.2 11c0-4.525 0-6.788 1.493-8.193C4.187 1.402 6.591 1.4 11.4 1.4h.928c3.912 0 5.87 0 7.229.958.388.274.734.6 1.026.966 1.017 1.28 1.017 3.12 1.017 6.804v3.054c0 3.556 0 5.334-.563 6.754-.904 2.283-2.817 4.083-5.244 4.935-1.508.53-3.396.53-7.176.53-2.157 0-3.237 0-4.099-.303-1.386-.487-2.479-1.516-2.996-2.82-.322-.811-.322-1.828-.322-3.86V11z" stroke="#F1F7F7" stroke-width="2.4" stroke-linecap="round" stroke-linejoin="round"/><path d="M21.6 13.4a4 4 0 01-4 4c-.8 0-1.741-.14-2.518.068a2.004 2.004 0 00-1.414 1.415c-.208.777-.069 1.719-.069 2.518a4 4 0 01-4 4m-3-18H15m-8.4 4.8h3.6" stroke="#F1F7F7" stroke-width="2.4" stroke-linecap="round" stroke-linejoin="round"/></svg>