<svg width="29" height="24" fill="none" xmlns="http://www.w3.org/2000/svg"><path d="M22.125 1.745H6.501A4.755 4.755 0 001.746 6.5v11.55a4.755 4.755 0 004.755 4.755h15.624a4.755 4.755 0 004.756-4.755V6.5a4.755 4.755 0 00-4.756-4.755z" stroke="#F1F7F7" stroke-width="2.4" stroke-linecap="round" stroke-linejoin="round"/><path d="M10.006 14.027c0 1.492 0 2.237.312 2.668.273.377.693.62 1.155.669.531.056 1.178-.315 2.47-1.058l3.049-1.753c1.299-.747 1.95-1.12 2.167-1.61a1.63 1.63 0 000-1.337c-.217-.489-.868-.863-2.167-1.608l-3.049-1.754c-1.292-.744-1.939-1.115-2.468-1.059a1.638 1.638 0 00-1.155.669c-.314.432-.314 1.176-.314 2.667v3.506z" stroke="#F1F7F7" stroke-width="2.4"/></svg>