<svg width="27" height="26" fill="none" xmlns="http://www.w3.org/2000/svg"><path d="M6.201 10h4.8" stroke="#F1F7F7" stroke-width="2.4" stroke-linecap="round" stroke-linejoin="round"/><path d="M24 11.2h-3.123C18.735 11.2 17 12.81 17 14.8c0 1.988 1.736 3.6 3.876 3.6H24c.1 0 .15 0 .192-.003.648-.04 1.164-.519 1.206-1.12.002-.038.002-.085.002-.177v-4.601c0-.093 0-.14-.002-.178-.044-.601-.558-1.08-1.206-1.12L24 11.2z" stroke="#F1F7F7" stroke-width="2.4"/><path d="M24.158 11.2c-.093-2.247-.393-3.625-1.364-4.594-1.405-1.407-3.668-1.407-8.194-1.407H11c-4.525 0-6.788 0-8.193 1.407C1.402 8.012 1.4 10.274 1.4 14.799c0 4.525 0 6.789 1.407 8.194 1.406 1.405 3.668 1.406 8.193 1.406h3.6c4.526 0 6.789 0 8.194-1.406.97-.97 1.272-2.347 1.364-4.594" stroke="#F1F7F7" stroke-width="2.4"/><path d="M6.201 5.2l4.482-2.973a3.888 3.888 0 014.236 0L19.401 5.2" stroke="#F1F7F7" stroke-width="2.4" stroke-linecap="round"/><path d="M20.59 14.8h.012" stroke="#F1F7F7" stroke-width="2.4" stroke-linecap="round" stroke-linejoin="round"/></svg>